<svg height="512" viewBox="0 0 60 60" width="512" xmlns="http://www.w3.org/2000/svg"><g id="003---Hot-Stones"><path id="Shape" d="m48.61 38.52c5-3.68 4.94-9.13-3.17-12.91 9.07-3.59 9.05-10.55-2.07-13.94 1.0019032-.9634241 1.586962-2.28070389 1.63-3.67 0-4.49-6.59-8-15-8-12 0-18.76 6.91-12.85 12.16-8.47 3.1-8.67 8.17-4.46 11.35-7.89 1.94-12.69 5.49-12.69 9.49 0 2.83 2.32 5.41 6.57 7.4-4.25 2.09-6.57 4.74-6.57 7.6 0 6.73 13.18 12 30 12s30-5.27 30-12c0-3.85-4.13-7.24-11.39-9.48zm-18.61-36.52c7.78 0 13 3.1 13 6s-5.22 6-13 6c-3.5226311.1171255-7.0156944-.6786315-10.14-2.31l-.13-.08c-1.73-1.06-2.73-2.35-2.73-3.61 0-2.9 5.22-6 13-6zm-10.81 11.59c6 3.32 16.51 3.23 22.26-.38 5.21 1.33 8.55 3.58 8.55 5.79s-3 4.21-7.69 5.56c-8 2.26-19.77 1.93-26.55-1.49s-3.67-7.32 3.43-9.48zm-17.19 19.41c0-3.25 5.29-6.45 13.2-8 7.26 3.5 19.09 3.82 27.33 1.57 7.72 2.82 10.53 7.43 3.17 11.43-6.47 4-24.32 5.79-36.25 1.41-4.73-1.72-7.45-4.06-7.45-6.41zm28 25c-16.75 0-28-5.17-28-10 0-2.34 2.6-4.72 7.15-6.56 10.72 3.78 27.77 3.44 37.17-1.44 7.21 1.9 11.68 5 11.68 8 0 4.83-11.25 10-28 10z"/><path id="Shape" d="m53.71 48.3c-2.13 2.21-10.45 5.7-23.71 5.7-9.62 0-15.89-1.84-18.76-2.93-.5135854-.197185-1.0899933.0575069-1.29.57-.09783902.2478988-.09267645.5245967.01434174.7686732.10701816.2440766.30703746.4353373.55565826.5313268 15.4 5.86 39 2.55 44.63-3.24.2500859-.2572312.3439436-.6283419.2462178-.9735383s-.3721883-.6120348-.72-.7c-.3478117-.0879651-.7161319.0163071-.9662178.2735383z"/><path id="Shape" d="m7.37 49.17c-.39120785-.2489701-.75344443-.5407718-1.08-.87-.25008591-.2572312-.61840605-.3615034-.96621778-.2735383-.34781173.0879652-.62227418.3548036-.72.7s-.00386813.7163071.24621778.9735383c.42779369.4265025.90055444.8053817 1.41 1.13.22124691.1478952.49231949.2015002.75320529.1489477.26088581-.0525525.49006314-.2069274.63679471-.4289477.30124727-.4588827.176275-1.0748175-.28-1.38z"/><path id="Shape" d="m10.14 37.55c12.55 4.61 30.86 2.22 36.5-2.55.3037553-.2189996.4596995-.5893556.4040855-.9596733s-.3134651-.6785303-.6681484-.7986461c-.3546834-.1201159-.7467526-.0320031-1.0159371.2283194-5.14 4.32-22.85 6.53-34.53 2.21-.501404-.1394344-1.02593543.1290173-1.20609302.6172705s.04429194 1.0330669.51609302 1.2527295z"/><path id="Shape" d="m7.53 34.11c-.40036326-.2466274-.77846156-.5276916-1.13-.84-.39003745-.3877236-1.01996255-.3877236-1.41 0-.18160539.1956567-.27744287.4558028-.26617337.7225144.01126951.2667115.12871038.5178459.32617337.6974856.43992243.4108604.91508154.7822876 1.42 1.11.30211721.2209696.70234231.2547192 1.03719725.0874633.33485495-.1672559.54826933-.5075109.55307079-.8817827.00480146-.3742717-.19981398-.7198895-.53026804-.8956806z"/><path id="Shape" d="m19.71 22.48c7.1947943 1.9675132 14.7790461 2.019224 22 .15 4-1.14 5.52-2.56 5.87-3 .2546943-.2651659.3433359-.6487093.2308216-.9987417-.1125144-.3500324-.4080352-.6100907-.7695321-.6771882-.361497-.0670976-.7306577.069589-.9612895.3559299-.12.13-1.24 1.33-4.92 2.37-6.8677213 1.7663442-14.076534 1.7181017-20.92-.14-.3486659-.1300879-.7407289-.0558012-1.0176387.1928185-.2769097.2486198-.3928558.6304422-.3009497.9910584.0919062.3606162.3764602.6403678.7385884.7261231z"/><path id="Shape" d="m15.89 20.86c.4672916.2111896 1.0186013.0346812 1.2763444-.408637.2577431-.4433181.1383777-1.0097539-.2763444-1.311363-.3701461-.2130532-.7070611-.4792161-1-.79-.3589851-.4197364-.9902636-.4689851-1.41-.11s-.4689851.9902636-.11 1.41c.4404981.4800975.9533596.8883622 1.52 1.21z"/><path id="Shape" d="m30 12c7.55 0 12.68-3.49 10.48-4.84-.2265272-.14013497-.4996021-.1841025-.7586668-.12215224-.2590648.06195027-.4827077.22469816-.6213332.45215224-.34.51-3.48 2.51-9.1 2.51s-8.77-2-9.1-2.51c-.287496-.4522526-.8803968-.5974802-1.3443602-.32929323-.4639635.26818698-.6340415.8544428-.3856398 1.32929323.83 1.43 4.83 3.51 10.83 3.51z"/></g></svg>